{"title":"Escape Plan(2013)1080p M4V_PapaFatHead.m4v","uid":9593068,"size":3298185507,"categoryP":"video","categoryS":"hd___movies","magnet":"?xt=urn:btih:15e8194afa1dd61282644ff6ca53604de8421237&amp;dn=Escape+Plan%282013%291080p+M4V_PapaFatHead.m4v&amp;tr=udp%3A%2F%2Ftracker.openbittorrent.com%3A80&amp;tr=udp%3A%2F%2Fopen.demonii.com%3A1337&amp;tr=udp%3A%2F%2Ftracker.coppersurfer.tk%3A6969&amp;tr=udp%3A%2F%2Fexodus.desync.com%3A6969","seeders":1,"leechers":0,"uploader":"PapaFatHead","files":1,"time":1391953719,"description":"General\nComplete name                  : Escape Plan(2013)1080p M4V_PapaFatHead.m4v\nFormat                         : MPEG-4\nFormat profile                 : Base Media / Version 2\nCodec ID                       : mp42\nFile size                      : 3.07 GiB\nDuration                       : 1h 55mn\nOverall bit rate mode          : Variable\nOverall bit rate               : 3 795 Kbps\nMovie name                     : Escape Plan\nEncoded date                   : UTC 2014-02-09 02:18:03\nTagged date                    : UTC 2014-02-09 03:54:39\nWriting application            : HandBrake 0.9.9 2013052900\n\nVideo\nID                             : 1\nFormat                         : AVC\nFormat/Info                    : Advanced Video Codec\nFormat profile                 : &lt;a class=&quot;__cf_email__&quot; href=&quot;/cdn-cgi/l/email-protection&quot; data-cfemail=&quot;0f476668674f433b213e&quot;&gt;[email&amp;#160;protected]&lt;/a&gt;&lt;script cf-hash='f9e31' type=&quot;text/javascript&quot;&gt;\n/* &lt;![CDATA[ */!function(){try{var t=&quot;currentScript&quot;in document?document.currentScript:function(){for(var t=document.getElementsByTagName(&quot;script&quot;),e=t.length;e--;)if(t[e].getAttribute(&quot;cf-hash&quot;))return t[e]}();if(t&amp;&amp;t.previousSibling){var e,r,n,i,c=t.previousSibling,a=c.getAttribute(&quot;data-cfemail&quot;);if(a){for(e=&quot;&quot;,r=parseInt(a.substr(0,2),16),n=2;a.length-n;n+=2)i=parseInt(a.substr(n,2),16)^r,e+=String.fromCharCode(i);e=document.createTextNode(e),c.parentNode.replaceChild(e,c)}}}catch(u){}}();/* ]]&gt; */&lt;/script&gt;\nFormat settings, CABAC         : Yes\nFormat settings, ReFrames      : 4 frames\nCodec ID                       : avc1\nCodec ID/Info                  : Advanced Video Coding\nDuration                       : 1h 55mn\nBit rate                       : 2 989 Kbps\nWidth                          : 1 920 pixels\nHeight                         : 800 pixels\nDisplay aspect ratio           : 2.40:1\nFrame rate mode                : Variable\nFrame rate                     : 23.976 fps\nMinimum frame rate             : 23.256 fps\nMaximum frame rate             : 25.000 fps\nColor space                    : YUV\nChroma subsampling             : 4:2:0\nBit depth                      : 8 bits\nScan type                      : Progressive\nBits/(Pixel*Frame)             : 0.081\nStream size                    : 2.42 GiB (79%)\nWriting library                : x264 core 130 r2273 b3065e6\n\nAudio #1\nID                             : 2\nFormat                         : AAC\nFormat/Info                    : Advanced Audio Codec\nFormat profile                 : LC\nCodec ID                       : 40\nDuration                       : 1h 55mn\nBit rate mode                  : Variable\nBit rate                       : 160 Kbps\nMaximum bit rate               : 309 Kbps\nChannel(s)                     : 2 channels\nChannel positions              : Front: L R\nSampling rate                  : 48.0 KHz\nCompression mode               : Lossy\nStream size                    : 132 MiB (4%)\nLanguage                       : English\nEncoded date                   : UTC 2014-02-09 02:18:03\nTagged date                    : UTC 2014-02-09 03:54:38\n\n","torrent":{"xt":"urn:btih:15e8194afa1dd61282644ff6ca53604de8421237","amp;dn":"Escape+Plan%282013%291080p+M4V_PapaFatHead.m4v","amp;tr":["udp%3A%2F%2Ftracker.openbittorrent.com%3A80","udp%3A%2F%2Fopen.demonii.com%3A1337","udp%3A%2F%2Ftracker.coppersurfer.tk%3A6969","udp%3A%2F%2Fexodus.desync.com%3A6969"],"infoHash":"15e8194afa1dd61282644ff6ca53604de8421237","infoHashBuffer":{"type":"Buffer","data":[21,232,25,74,250,29,214,18,130,100,79,246,202,83,96,77,232,66,18,55]},"announce":[],"urlList":[]}}